Music_GBPrinter_Ch3::
	tempo 256
	note_type 12, 1, 0
	octave 4
.loop
	note D_, 1
	note E_, 2
	note E_, 2
	note E_, 2
	note E_, 1
	note E_, 1
	note E_, 1
	note D_, 1
	note C_, 1
	note C_, 3

	note C_, 1
        note C_, 1
	note D_, 1
        note D_, 3
        note C_, 1
        note B_, 1
        note A_, 4

	note A_, 1
	note E_, 1
	note E_, 1
	note E_, 1
	note E_, 2
	note G_, 1
	note G_, 2
	note E_, 4
	
	note C_, 1
        note C_, 1
	note D_, 1
        note E_, 3
        note D_, 1
        note C_, 1
        note D_, 4

	

	

        note D_, 3

        note C_, 1

        note B_, 1

        note A_, 4
	
	rest 1
	note E_, 1
	rest 1
	note G#, 1
	rest 1
	note E_, 1
	rest 1
	note G#, 1
	rest 1
	note E_, 1
	rest 1
	octave 5
	note E_, 1
	note D#, 1
	note E_, 1
	rest 1
	octave 4
	note D#, 1
	rest 1
	note E_, 1
	rest 1
	note B_, 1
	rest 1
	note E_, 1
	rest 1
	note B_, 1
	rest 1
	note E_, 1
	rest 1
	note B_, 1
	rest 1
	note E_, 1
	rest 1
	note B_, 1
	rest 1
	note E_, 1
	rest 1
	note B_, 1
	rest 1
	note E_, 1
	rest 1
	note B_, 1
	rest 1
	note E_, 1
	rest 1
	note B_, 1
	rest 1
	note E_, 1
	rest 1
	note B_, 1
	rest 1
	note F#, 1
	rest 1
	note A_, 1
	rest 1
	note F#, 1
	rest 1
	note A_, 1
	rest 1
	note B_, 1
	rest 1
	note A_, 1
	rest 1
	note G#, 1
	rest 1
	note F#, 1
	rest 1
	note E_, 1
	rest 1
	note B_, 1
	rest 1
	note E_, 1
	rest 1
	note B_, 1
	rest 1
	note E_, 1
	rest 1
	octave 3
	note B_, 1
	rest 1
	octave 4
	note C#, 1
	rest 1
	note D_, 1
	rest 1
	note D#, 1
	rest 1
	note F#, 1
	rest 1
	octave 3
	note B_, 1
	rest 1
	octave 4
	note F#, 1
	rest 1
	note D#, 1
	rest 1
	note F#, 1
	rest 1
	octave 3
	note B_, 1
	rest 1
	octave 4
	note F#, 1
	rest 1
	note E_, 1
	rest 1
	note G#, 1
	rest 1
	octave 3
	note B_, 1
	rest 1
	octave 4
	note G#, 1
	rest 1
	note E_, 1
	rest 1
	note G#, 1
	rest 1
	octave 3
	note B_, 1
	rest 1
	octave 4
	note G#, 1
	rest 1
	note F#, 1
	rest 1
	note A_, 1
	rest 1
	note C#, 1
	rest 1
	note A_, 1
	rest 1
	note F#, 1
	rest 1
	note A_, 1
	rest 1
	note C#, 1
	rest 1
	note A_, 1
	rest 1
	note B_, 1
	note A#, 1
	note B_, 1
	rest 1
	note E_, 1
	rest 1
	note F#, 1
	rest 1
	note G#, 1
	rest 1
	octave 3
	note B_, 1
	rest 1
	octave 4
	note C#, 1
	rest 1
	note D_, 1
	rest 1
	note D#, 1
	rest 1
	note F#, 1
	rest 1
	octave 3
	note B_, 1
	rest 1
	octave 4
	note F#, 1
	rest 1
	note D#, 1
	rest 1
	note F#, 1
	rest 1
	octave 3
	note B_, 1
	rest 1
	octave 4
	note F#, 1
	rest 1
	note E_, 1
	rest 1
	note G#, 1
	rest 1
	octave 3
	note B_, 1
	rest 1
	octave 4
	note G#, 1
	rest 1
	note E_, 1
	rest 1
	note G#, 1
	rest 1
	octave 3
	note B_, 1
	rest 1
	octave 4
	note G#, 1
	rest 1
	note F#, 1
	rest 1
	note A_, 1
	rest 1
	note C#, 1
	rest 1
	note A_, 1
	rest 1
	note F#, 1
	rest 1
	note A_, 1
	rest 1
	note F#, 1
	rest 1
	note D#, 1
	rest 1
	note B_, 1
	rest 1
	note B_, 1
	rest 1
	note A_, 1
	rest 1
	note A_, 1
	rest 1
	note G#, 1
	rest 1
	octave 3
	note B_, 1
	rest 1
	octave 4
	note C#, 1
	rest 1
	note D#, 1
	rest 1
	sound_loop 0, .loop
